<?xml version="1.0" encoding="utf-8"?>
<!-- Generator: Adobe Illustrator 28.2.0, SVG Export Plug-In . SVG Version: 6.00 Build 0)  -->
<svg version="1.1" id="Layer_1" xmlns="http://www.w3.org/2000/svg" xmlns:xlink="http://www.w3.org/1999/xlink" x="0px" y="0px"
	 viewBox="0 0 100 100" style="enable-background:new 0 0 100 100;" xml:space="preserve">
<style type="text/css">
	.st0{fill:url(#SVGID_1_);}
	.st1{fill:url(#SVGID_00000021822215002459810680000005874811899985098153_);}
	.st2{fill:url(#SVGID_00000004545935527931430890000015880160217093781435_);}
	.st3{fill:#002667;}
	.st4{fill:url(#SVGID_00000151543257216291112670000001216141859329417907_);}
	.st5{fill:url(#SVGID_00000041987299813910024710000009451000997453076113_);}
</style>
<g>
	<linearGradient id="SVGID_1_" gradientUnits="userSpaceOnUse" x1="62.4612" y1="161.8618" x2="48.2401" y2="43.1264">
		<stop  offset="4.109771e-03" style="stop-color:#E6E6E6"/>
		<stop  offset="1" style="stop-color:#FFFFFF"/>
	</linearGradient>
	<path class="st0" d="M31.8,18.5c4.1,0,8.1,0,12.2,0c0,5.5,0,10.9,0,16.4c1.9-0.2,3.6-0.4,5.3-0.6c3.1-0.2,6.1,0.1,9,1.1
		c5.9,2.1,9.1,6.6,9.5,12.7c0.4,6.1,0.4,12.2,0,18.2c-0.5,8-6.6,13.9-14.6,14.8c-3.6,0.4-7.1,0.3-10.5-0.8
		c-6.4-2.1-9.8-6.7-10.7-13.3c-0.2-1.4-0.2-2.9-0.2-4.4c0-14.3,0-28.5,0-42.8C31.8,19.5,31.8,19.1,31.8,18.5z M44.3,65.7
		c0.1,2,0.9,3.9,3,4.8c4,1.7,7.9-0.2,8.2-4.4c0.4-5.5,0.4-11,0.1-16.5c-0.1-3-1.9-4.5-4.9-4.5c-1.9,0-3.8,0.5-5.7,0.8
		c-0.7,0.1-1,0.5-1,1.3C44.1,49.9,44.1,62.3,44.3,65.7z"/>
	
		<linearGradient id="SVGID_00000053547636497866109230000004500656921518645179_" gradientUnits="userSpaceOnUse" x1="74.2214" y1="77.4548" x2="89.0126" y2="77.4548">
		<stop  offset="5.540901e-07" style="stop-color:#F29F1F"/>
		<stop  offset="1" style="stop-color:#FD6C00"/>
	</linearGradient>
	<circle style="fill:url(#SVGID_00000053547636497866109230000004500656921518645179_);" cx="81.6" cy="77.5" r="7.4"/>
	
		<linearGradient id="SVGID_00000089560260538832220940000002246418253926140093_" gradientUnits="userSpaceOnUse" x1="5.4332" y1="50" x2="94.5668" y2="50">
		<stop  offset="5.540901e-07" style="stop-color:#F29F1F"/>
		<stop  offset="1" style="stop-color:#FD6C00"/>
	</linearGradient>
	<path style="fill:url(#SVGID_00000089560260538832220940000002246418253926140093_);" d="M72.5,85.2c-6.9,4.4-15.2,6.9-24.1,6.5
		C26.6,90.9,9,73.2,8.2,51.4C7.5,27.6,26.7,8,50.4,8.2c22.1,0.2,40.5,17.9,41.4,40c0.3,6.8-1.1,13.3-3.7,19.1
		c-0.3,0.6-0.1,1.2,0.4,1.6c0,0,0,0,0,0c0.7,0.6,1.8,0.3,2.1-0.5c2.7-5.9,4.2-12.5,4-19.4C94.1,25.5,74,5.7,50.5,5.4
		C25.9,5.2,5.8,24.9,5.4,49.4c-0.3,24.4,19.8,45,44.2,45.2c8.9,0.1,17.3-2.5,24.3-7c0.8-0.5,0.8-1.6,0.2-2.2c0,0,0,0,0,0
		C73.7,84.9,73,84.9,72.5,85.2z"/>
</g>
<g>
	<path class="st3" d="M-200.2-67.5c4.1,0,8.1,0,12.2,0c0,5.5,0,10.9,0,16.4c1.9-0.2,3.6-0.4,5.3-0.6c3.1-0.2,6.1,0.1,9,1.1
		c5.9,2.1,9.1,6.6,9.5,12.7c0.4,6.1,0.4,12.2,0,18.2c-0.5,8-6.6,13.9-14.6,14.8c-3.6,0.4-7.1,0.3-10.5-0.8
		c-6.4-2.1-9.8-6.7-10.7-13.3c-0.2-1.4-0.2-2.9-0.2-4.4c0-14.3,0-28.5,0-42.8C-200.2-66.5-200.2-66.9-200.2-67.5z M-187.7-20.3
		c0.1,2,0.9,3.9,3,4.8c4,1.7,7.9-0.2,8.2-4.4c0.4-5.5,0.4-11,0.1-16.5c-0.1-3-1.9-4.5-4.9-4.5c-1.9,0-3.8,0.5-5.7,0.8
		c-0.7,0.1-1,0.5-1,1.3C-187.9-36.1-187.9-23.7-187.7-20.3z"/>
	
		<linearGradient id="SVGID_00000040569187352717293900000002091556980703464890_" gradientUnits="userSpaceOnUse" x1="-157.7786" y1="-8.5452" x2="-142.9874" y2="-8.5452">
		<stop  offset="5.540901e-07" style="stop-color:#F29F1F"/>
		<stop  offset="1" style="stop-color:#FD6C00"/>
	</linearGradient>
	<circle style="fill:url(#SVGID_00000040569187352717293900000002091556980703464890_);" cx="-150.4" cy="-8.5" r="7.4"/>
	
		<linearGradient id="SVGID_00000085223526250339911550000014054161139060655540_" gradientUnits="userSpaceOnUse" x1="-226.5668" y1="-36" x2="-137.4332" y2="-36">
		<stop  offset="5.540901e-07" style="stop-color:#F29F1F"/>
		<stop  offset="1" style="stop-color:#FD6C00"/>
	</linearGradient>
	<path style="fill:url(#SVGID_00000085223526250339911550000014054161139060655540_);" d="M-159.5-0.8c-6.9,4.4-15.2,6.9-24.1,6.5
		c-21.8-0.9-39.4-18.6-40.1-40.3c-0.8-23.8,18.5-43.4,42.1-43.2c22.1,0.2,40.5,17.9,41.4,40c0.3,6.8-1.1,13.3-3.7,19.1
		c-0.3,0.6-0.1,1.2,0.4,1.6c0,0,0,0,0,0c0.7,0.6,1.8,0.3,2.1-0.5c2.7-5.9,4.2-12.5,4-19.4c-0.5-23.5-20.6-43.4-44.1-43.6
		c-24.6-0.3-44.7,19.5-45,43.9c-0.3,24.4,19.8,45,44.2,45.2c8.9,0.1,17.3-2.5,24.3-7c0.8-0.5,0.8-1.6,0.2-2.2c0,0,0,0,0,0
		C-158.3-1.1-159-1.1-159.5-0.8z"/>
</g>
</svg>
